<?xml version="1.0" standalone="no"?>
<!DOCTYPE svg PUBLIC "-//W3C//DTD SVG 20010904//EN" "http://www.w3.org/TR/2001/REC-SVG-20010904/DTD/svg10.dtd">
<!-- Created using Krita: http://krita.org -->
<svg xmlns="http://www.w3.org/2000/svg" 
    xmlns:xlink="http://www.w3.org/1999/xlink"
    xmlns:krita="http://krita.org/namespaces/svg/krita"
    xmlns:sodipodi="http://sodipodi.sourceforge.net/DTD/sodipodi-0.dtd"
    width="184.32pt"
    height="184.32pt"
    viewBox="0 0 184.32 184.32">
<defs/>
<rect id="shape0" transform="matrix(0.999999841054297 0 0 0.999999841054297 0 0)" fill="#1228d6" fill-rule="evenodd" stroke="#f4f4f4" stroke-width="5.4" stroke-linecap="square" stroke-linejoin="bevel" width="184.32" height="184.32"/><path id="shape1" transform="matrix(0.999999841054297 0 0 0.999999841054297 0 25.5599959373478)" fill="none" stroke="#f4f4f4" stroke-width="5.4" stroke-linecap="square" stroke-linejoin="miter" stroke-miterlimit="2" d="M0 0L184.32 0"/><path id="shape2" transform="matrix(0.999999841054297 0 0 0.999999841054297 7.32421770578647e-06 91.7459111294996)" fill="none" stroke="#f4f4f4" stroke-width="5.4" stroke-linecap="square" stroke-linejoin="miter" stroke-miterlimit="2" d="M0 0L184.32 0"/><path id="shape3" transform="matrix(0.999999841054297 0 0 0.999999841054297 40.3199935913092 0)" fill="none" stroke="#f4f4f4" stroke-width="5.4" stroke-linecap="square" stroke-linejoin="miter" stroke-miterlimit="2" d="M0.36 0L0 184.32"/><path id="shape01" transform="matrix(0.99999988079072 0 0 0.99999988079072 2.56891955438809 29.3284982459307)" fill="none" stroke="#f4f4f4" stroke-width="5.4" stroke-linecap="square" stroke-linejoin="miter" stroke-miterlimit="2" d="M0 0.428153L181.751 0"/><path id="shape11" transform="matrix(0.99999988079072 0 0 0.99999988079072 2.56891955438809 95.6452861562155)" fill="none" stroke="#f4f4f4" stroke-width="5.4" stroke-linecap="square" stroke-linejoin="miter" stroke-miterlimit="2" d="M0 0L178.326 0"/><path id="shape21" transform="matrix(0.99999988079072 0 0 0.99999988079072 4.9237625728169 100.140895861273)" fill="none" stroke="#f4f4f4" stroke-width="5.4" stroke-linecap="square" stroke-linejoin="miter" stroke-miterlimit="2" d="M0 0.214077L179.182 0"/><path id="shape31" transform="matrix(0.99999988079072 0 0 0.99999988079072 2.99707281345278 32.9678009479805)" fill="none" stroke="#f4f4f4" stroke-width="5.4" stroke-linecap="square" stroke-linejoin="miter" stroke-miterlimit="2" d="M0 0L178.968 0"/><path id="shape4" transform="matrix(0.99999988079072 0 0 0.99999988079072 45.170168831324 2.14076629532341)" fill="none" stroke="#f4f4f4" stroke-width="5.4" stroke-linecap="square" stroke-linejoin="miter" stroke-miterlimit="2" d="M0 0L0.214077 182.179"/>
</svg>
